# xmcd CD database file
#
# Track frame offsets:
#	150
#	13008
#	26641
#	40330
#	54847
#	68596
#	84901
#	99148
#	111349
#	126009
#	139663
#	155138
#	167958
#	181818
#
# Disc length: 3401 seconds
#
# Revision: 0
# Processed by: cddbd v1.5.2PL0 Copyright (c) Steve Scherf et al.
# Submitted via: CDex 1.51
#
DISCID=ad0d470e
DTITLE=Bratislava Hot Serenaders - Lonely Melody
DYEAR=2014
DGENRE=Jazz
TTITLE0=You Took Advantage Of Me
TTITLE1=Thats What I Like About You
TTITLE2=Lonely Melody
TTITLE3=Crazy Rythm
TTITLE4=Birmingham Berta
TTITLE5=Is It Gona Be Long
TTITLE6=There Aint No Sweet Man
TTITLE7=If I Had a Talking Picture Of You
TTITLE8=Ill Be a Friend With Pleasure 
TTITLE9=Raphsody in Blue
TTITLE10=Happy Feet
TTITLE11=When Summer Is Gone
TTITLE12=Im Crazy About My Baby
TTITLE13=Get Out And Get Under The Moon
EXTD=YEAR: 2014
EXTT0=
EXTT1=
EXTT2=
EXTT3=
EXTT4=
EXTT5=
EXTT6=
EXTT7=
EXTT8=
EXTT9=
EXTT10=
EXTT11=
EXTT12=
EXTT13=
PLAYORDER=
